STARTFONT 2.1
FONT -FontForge-ITC Benguiat Gothic Std-Medium-R-Normal--24-240-75-75-P-123-ISO8859-1
SIZE 24 75 75
FONTBOUNDINGBOX 28 28 -4 -6
COMMENT "Generated by fontforge, http://fontforge.sourceforge.net"
COMMENT "Copyright 1990, 1995 , 2002Adobe Systems Incorporated. All Rights Reserved. ITC Benguiat Gothic is a registered trademark of International Typeface Corporation."
STARTPROPERTIES 40
FOUNDRY "FontForge"
FAMILY_NAME "ITC Benguiat Gothic Std"
WEIGHT_NAME "Medium"
SLANT "R"
SETWIDTH_NAME "Normal"
ADD_STYLE_NAME ""
PIXEL_SIZE 24
POINT_SIZE 240
RESOLUTION_X 75
RESOLUTION_Y 75
SPACING "P"
AVERAGE_WIDTH 123
CHARSET_REGISTRY "ISO8859"
CHARSET_ENCODING "1"
FONTNAME_REGISTRY ""
CHARSET_COLLECTIONS "ISOLatin1Encoding"
FONT_NAME "BenguiatGothicStd-Medium"
FACE_NAME "ITC Benguiat Gothic Std Medium"
COPYRIGHT "Copyright 1990, 1995 , 2002Adobe Systems Incorporated. All Rights Reserved. ITC Benguiat Gothic is a registered trademark of International Typeface Corporation."
FONT_VERSION "001.001"
FONT_ASCENT 17
FONT_DESCENT 7
UNDERLINE_POSITION -2
UNDERLINE_THICKNESS 2
X_HEIGHT 12
CAP_HEIGHT 16
RAW_ASCENT 691
RAW_DESCENT 309
NORM_SPACE 7
RELATIVE_WEIGHT 50
RELATIVE_SETWIDTH 50
SUPERSCRIPT_X 0
SUPERSCRIPT_Y 8
SUPERSCRIPT_SIZE 14
SUBSCRIPT_X 0
SUBSCRIPT_Y 1
SUBSCRIPT_SIZE 14
FIGURE_WIDTH 15
AVG_LOWERCASE_WIDTH 117
AVG_UPPERCASE_WIDTH 144
ENDPROPERTIES
CHARS 253
STARTCHAR space
ENCODING 32
SWIDTH 305 0
DWIDTH 7 0
BBX 1 1 0 0
BITMAP
00
ENDCHAR
STARTCHAR exclam
ENCODING 33
SWIDTH 278 0
DWIDTH 7 0
BBX 2 17 2 0
BITMAP
C0
C0
C0
C0
C0
C0
C0
C0
C0
C0
C0
C0
00
00
40
C0
C0
ENDCHAR
STARTCHAR quotedbl
ENCODING 34
SWIDTH 333 0
DWIDTH 8 0
BBX 6 6 1 11
BITMAP
CC
CC
CC
CC
CC
CC
ENDCHAR
STARTCHAR numbersign
ENCODING 35
SWIDTH 611 0
DWIDTH 15 0
BBX 12 17 1 0
BITMAP
0C60
0C60
0C40
0C40
0CC0
7FF0
7FF0
18C0
18C0
1880
FFF0
FFF0
1180
1180
3180
3180
3100
ENDCHAR
STARTCHAR dollar
ENCODING 36
SWIDTH 611 0
DWIDTH 15 0
BBX 11 20 1 -2
BITMAP
0C00
0C00
0C00
7F80
7F80
C000
E000
7F00
0FC0
0CE0
0C60
0C60
0C60
0C60
0DC0
FF80
FF00
0C00
0C00
0C00
ENDCHAR
STARTCHAR percent
ENCODING 37
SWIDTH 833 0
DWIDTH 20 0
BBX 18 17 1 0
BITMAP
3C0800
7E1800
631800
C33000
C33000
636000
7E6000
3CC000
00C000
008F00
019F80
01B180
0330C0
0330C0
063180
061F80
040F00
ENDCHAR
STARTCHAR ampersand
ENCODING 38
SWIDTH 778 0
DWIDTH 19 0
BBX 17 17 1 0
BITMAP
0F8000
1FC000
18C000
306000
306C00
18CC00
1DC600
3F8600
670600
63C600
E0EC00
E07C00
E03C00
601E00
787700
3FE380
0F8180
ENDCHAR
STARTCHAR quotesingle
ENCODING 39
SWIDTH 222 0
DWIDTH 5 0
BBX 2 6 2 11
BITMAP
80
C0
C0
C0
C0
C0
ENDCHAR
STARTCHAR parenleft
ENCODING 40
SWIDTH 389 0
DWIDTH 9 0
BBX 6 22 2 -5
BITMAP
0C
18
38
30
60
60
C0
C0
C0
C0
C0
C0
C0
C0
C0
E0
60
60
30
38
1C
0C
ENDCHAR
STARTCHAR parenright
ENCODING 41
SWIDTH 389 0
DWIDTH 9 0
BBX 7 22 1 -5
BITMAP
C0
60
30
38
18
1C
0C
0C
0C
0E
0E
0E
0E
0C
0C
0C
1C
18
38
30
60
C0
ENDCHAR
STARTCHAR asterisk
ENCODING 42
SWIDTH 333 0
DWIDTH 8 0
BBX 6 7 1 10
BITMAP
30
30
FC
78
F8
FC
30
ENDCHAR
STARTCHAR plus
ENCODING 43
SWIDTH 600 0
DWIDTH 14 0
BBX 12 13 1 0
BITMAP
0600
0600
0600
0600
0600
0600
FFF0
FFF0
0600
0600
0600
0600
0600
ENDCHAR
STARTCHAR comma
ENCODING 44
SWIDTH 305 0
DWIDTH 7 0
BBX 4 6 1 -3
BITMAP
30
70
60
60
C0
C0
ENDCHAR
STARTCHAR hyphen
ENCODING 45
SWIDTH 333 0
DWIDTH 8 0
BBX 6 2 1 5
BITMAP
FC
FC
ENDCHAR
STARTCHAR period
ENCODING 46
SWIDTH 305 0
DWIDTH 7 0
BBX 3 3 2 0
BITMAP
40
E0
60
ENDCHAR
STARTCHAR slash
ENCODING 47
SWIDTH 278 0
DWIDTH 7 0
BBX 8 17 -1 0
BITMAP
01
03
03
06
06
06
0C
0C
18
18
38
30
30
60
60
C0
C0
ENDCHAR
STARTCHAR zero
ENCODING 48
SWIDTH 611 0
DWIDTH 15 0
BBX 13 17 1 0
BITMAP
0F00
1FC0
38E0
7060
6030
E030
C038
C018
C018
C018
C038
C030
6030
7060
38E0
1FC0
0F80
ENDCHAR
STARTCHAR one
ENCODING 49
SWIDTH 611 0
DWIDTH 15 0
BBX 8 17 4 0
BITMAP
38
F8
F8
18
18
18
18
18
18
18
18
18
18
18
18
FF
FF
ENDCHAR
STARTCHAR two
ENCODING 50
SWIDTH 611 0
DWIDTH 15 0
BBX 11 17 2 0
BITMAP
FF00
FF80
01C0
00C0
00C0
00C0
01C0
0380
0F00
1E00
7800
F000
E000
C000
C000
FFE0
FFE0
ENDCHAR
STARTCHAR three
ENCODING 51
SWIDTH 611 0
DWIDTH 15 0
BBX 12 17 1 0
BITMAP
7FC0
7FC0
0380
0700
1C00
3F00
3FC0
00E0
0070
0030
0030
0030
0030
0070
00E0
FFC0
FF80
ENDCHAR
STARTCHAR four
ENCODING 52
SWIDTH 611 0
DWIDTH 15 0
BBX 13 17 1 0
BITMAP
01C0
03C0
0FC0
0CC0
18C0
30C0
70C0
60C0
60C0
C0C0
C0C0
FFF8
FFF8
00C0
00C0
00C0
00C0
ENDCHAR
STARTCHAR five
ENCODING 53
SWIDTH 611 0
DWIDTH 15 0
BBX 12 17 1 0
BITMAP
3FE0
7FE0
6000
6000
7E00
7FC0
01E0
0070
0030
0030
0030
0030
0030
0070
00E0
FFE0
FF80
ENDCHAR
STARTCHAR six
ENCODING 54
SWIDTH 611 0
DWIDTH 15 0
BBX 13 17 1 0
BITMAP
0FF0
3FF0
3800
7000
6000
E780
DFE0
F870
F030
E038
E018
E018
E038
7030
7870
3FE0
0F80
ENDCHAR
STARTCHAR seven
ENCODING 55
SWIDTH 611 0
DWIDTH 15 0
BBX 10 17 2 0
BITMAP
FFC0
FFC0
00C0
00C0
01C0
0180
0380
0300
0600
0E00
0C00
1C00
1800
3800
3000
3000
3000
ENDCHAR
STARTCHAR eight
ENCODING 56
SWIDTH 611 0
DWIDTH 15 0
BBX 13 17 1 0
BITMAP
0F80
3FC0
70E0
6060
6070
6060
70E0
3FC0
3FE0
7070
E030
C038
C030
E030
7070
3FE0
1F80
ENDCHAR
STARTCHAR nine
ENCODING 57
SWIDTH 611 0
DWIDTH 15 0
BBX 13 17 1 0
BITMAP
1F80
3FC0
70E0
E070
C030
C030
C038
C038
E078
70F8
3FB0
1F30
0030
0070
00E0
7FC0
7F80
ENDCHAR
STARTCHAR colon
ENCODING 58
SWIDTH 305 0
DWIDTH 7 0
BBX 3 10 2 0
BITMAP
60
E0
40
00
00
00
00
40
E0
60
ENDCHAR
STARTCHAR semicolon
ENCODING 59
SWIDTH 305 0
DWIDTH 7 0
BBX 4 13 1 -3
BITMAP
30
30
20
00
00
00
20
30
60
60
E0
C0
80
ENDCHAR
STARTCHAR less
ENCODING 60
SWIDTH 600 0
DWIDTH 14 0
BBX 12 13 1 0
BITMAP
0010
0070
01E0
0780
1E00
F800
E000
F800
3E00
0780
01E0
0070
0010
ENDCHAR
STARTCHAR equal
ENCODING 61
SWIDTH 600 0
DWIDTH 14 0
BBX 12 6 1 3
BITMAP
FFF0
FFF0
0000
0000
FFF0
FFF0
ENDCHAR
STARTCHAR greater
ENCODING 62
SWIDTH 600 0
DWIDTH 14 0
BBX 12 13 1 0
BITMAP
8000
E000
7C00
1F00
07C0
00F0
0030
00F0
07C0
1F00
7C00
E000
8000
ENDCHAR
STARTCHAR question
ENCODING 63
SWIDTH 500 0
DWIDTH 12 0
BBX 10 17 1 0
BITMAP
FF00
FF80
0180
01C0
01C0
01C0
0380
0700
0E00
1C00
1800
3800
1000
0000
1000
3800
3000
ENDCHAR
STARTCHAR at
ENCODING 64
SWIDTH 800 0
DWIDTH 19 0
BBX 17 17 1 0
BITMAP
03F000
0FFC00
180600
300300
61ED00
67F980
C63980
CC1980
CC1980
CC1180
CC3300
6C7600
67FC00
331300
180600
0FFC00
03F000
ENDCHAR
STARTCHAR A
ENCODING 65
SWIDTH 667 0
DWIDTH 16 0
BBX 14 17 1 0
BITMAP
0300
0780
0F80
0CC0
18E0
1860
3860
3E30
7FB0
61F8
6078
E038
C01C
C01C
C00C
C00C
C00C
ENDCHAR
STARTCHAR B
ENCODING 66
SWIDTH 611 0
DWIDTH 15 0
BBX 12 17 2 0
BITMAP
FFC0
FFE0
C0E0
C060
F8E0
FFC0
C780
C1C0
C0E0
C070
C030
C030
C030
C070
C0E0
FFE0
FFC0
ENDCHAR
STARTCHAR C
ENCODING 67
SWIDTH 611 0
DWIDTH 15 0
BBX 13 17 1 0
BITMAP
0FF0
3FF0
7800
6000
E000
C000
C000
C000
C000
E000
6000
7000
3800
3C00
1F00
07F8
01F8
ENDCHAR
STARTCHAR D
ENCODING 68
SWIDTH 667 0
DWIDTH 16 0
BBX 13 17 2 0
BITMAP
FC00
FF00
C780
C1C0
C0E0
C070
C030
C038
C018
C018
C018
C018
C038
C030
C070
FFE0
FF80
ENDCHAR
STARTCHAR E
ENCODING 69
SWIDTH 556 0
DWIDTH 13 0
BBX 10 17 2 0
BITMAP
FFC0
FFC0
C000
C000
FFC0
FFC0
C000
C000
C000
C000
C000
C000
C000
C000
C000
FFC0
FFC0
ENDCHAR
STARTCHAR F
ENCODING 70
SWIDTH 500 0
DWIDTH 12 0
BBX 10 17 2 0
BITMAP
FFC0
FFC0
C000
C000
FF80
FF80
C000
C000
C000
C000
C000
C000
C000
C000
C000
C000
C000
ENDCHAR
STARTCHAR G
ENCODING 71
SWIDTH 667 0
DWIDTH 16 0
BBX 14 17 1 0
BITMAP
1FF8
3FF8
7000
E000
E1F8
C1FC
C00C
C00C
C00C
E00C
E00C
700C
380C
3C0C
1F0C
07FC
00F8
ENDCHAR
STARTCHAR H
ENCODING 72
SWIDTH 611 0
DWIDTH 15 0
BBX 11 17 2 0
BITMAP
C060
C060
C060
C060
FFE0
FFE0
C060
C060
C060
C060
C060
C060
C060
C060
C060
C060
C060
ENDCHAR
STARTCHAR I
ENCODING 73
SWIDTH 222 0
DWIDTH 5 0
BBX 2 17 2 0
BITMAP
C0
C0
C0
C0
C0
C0
C0
C0
C0
C0
C0
C0
C0
C0
C0
C0
C0
ENDCHAR
STARTCHAR J
ENCODING 74
SWIDTH 444 0
DWIDTH 11 0
BBX 10 17 -1 0
BITMAP
00C0
00C0
00C0
00C0
00C0
00C0
00C0
00C0
00C0
00C0
00C0
00C0
00C0
01C0
E380
FF80
3E00
ENDCHAR
STARTCHAR K
ENCODING 75
SWIDTH 611 0
DWIDTH 15 0
BBX 12 17 2 0
BITMAP
C060
C060
C0E0
C1C0
C380
FF00
FF00
C780
C180
C1C0
C0E0
C060
C060
C070
C030
C030
C030
ENDCHAR
STARTCHAR L
ENCODING 76
SWIDTH 444 0
DWIDTH 11 0
BBX 9 17 2 0
BITMAP
C000
C000
C000
C000
C000
C000
C000
C000
C000
C000
C000
C000
C000
C000
C000
FF80
FF80
ENDCHAR
STARTCHAR M
ENCODING 77
SWIDTH 722 0
DWIDTH 17 0
BBX 14 17 2 0
BITMAP
6030
7030
7078
F878
D8D8
DCD8
CD98
CF98
C718
C208
C00C
C00C
C00C
C00C
C00C
C00C
800C
ENDCHAR
STARTCHAR N
ENCODING 78
SWIDTH 611 0
DWIDTH 15 0
BBX 11 17 2 0
BITMAP
C060
E060
F060
F860
DC60
CFE0
C3E0
C060
C060
C060
C060
C060
C060
C060
C060
C060
C060
ENDCHAR
STARTCHAR O
ENCODING 79
SWIDTH 722 0
DWIDTH 17 0
BBX 15 17 1 0
BITMAP
07C0
1FF0
3C38
701C
600C
E00E
E006
C006
C006
C006
E006
E00E
600C
701C
3838
1FF0
07C0
ENDCHAR
STARTCHAR P
ENCODING 80
SWIDTH 556 0
DWIDTH 13 0
BBX 11 17 2 0
BITMAP
FFC0
FFE0
C060
C060
C0E0
C1C0
CF80
FF00
F800
C000
C000
C000
C000
C000
C000
C000
C000
ENDCHAR
STARTCHAR Q
ENCODING 81
SWIDTH 722 0
DWIDTH 17 0
BBX 16 20 1 -3
BITMAP
07C0
1FF0
3C38
701C
600C
E00E
E006
C006
C006
C006
E006
EF0E
6F8E
71DC
38F8
1FF0
07F0
0038
003F
000E
ENDCHAR
STARTCHAR R
ENCODING 82
SWIDTH 667 0
DWIDTH 16 0
BBX 13 17 2 0
BITMAP
FFC0
FFE0
C070
C030
F870
FFE0
CFC0
C1C0
C0E0
C060
C030
C030
C038
C018
C018
C018
C018
ENDCHAR
STARTCHAR S
ENCODING 83
SWIDTH 611 0
DWIDTH 15 0
BBX 13 17 1 0
BITMAP
7FE0
FFE0
C000
C000
E000
7F80
3FE0
00F0
0038
0038
0018
0018
0038
0030
00F0
FFE0
FF80
ENDCHAR
STARTCHAR T
ENCODING 84
SWIDTH 500 0
DWIDTH 12 0
BBX 12 17 0 0
BITMAP
FFF0
FFF0
0600
0600
0600
0600
0600
0600
0600
0600
0600
0600
0600
0600
0600
0600
0600
ENDCHAR
STARTCHAR U
ENCODING 85
SWIDTH 611 0
DWIDTH 15 0
BBX 13 17 1 0
BITMAP
6020
6070
6030
6030
6030
6030
C030
C030
C030
C018
C018
C018
C038
E030
70F0
3FE0
0F80
ENDCHAR
STARTCHAR V
ENCODING 86
SWIDTH 611 0
DWIDTH 15 0
BBX 13 17 1 0
BITMAP
C018
C018
C018
C038
C030
E030
6030
6030
6060
3060
30E0
38C0
18C0
1D80
0F80
0F00
0600
ENDCHAR
STARTCHAR W
ENCODING 87
SWIDTH 833 0
DWIDTH 20 0
BBX 18 17 1 0
BITMAP
C0C0C0
C0C0C0
C0C0C0
C0C0C0
C1C0C0
C1E0C0
C1E1C0
E1E180
61E180
61E180
633180
733300
333300
361B00
3E1E00
1C0E00
0C0C00
ENDCHAR
STARTCHAR X
ENCODING 88
SWIDTH 611 0
DWIDTH 15 0
BBX 13 17 1 0
BITMAP
6030
6070
7070
38E0
1DC0
0F80
0F00
1F80
39C0
30E0
7060
6070
E030
C038
C038
C018
C018
ENDCHAR
STARTCHAR Y
ENCODING 89
SWIDTH 556 0
DWIDTH 13 0
BBX 12 17 1 0
BITMAP
C030
C070
C060
E060
60C0
71C0
3B80
1F00
0E00
0600
0600
0600
0600
0600
0600
0600
0600
ENDCHAR
STARTCHAR Z
ENCODING 90
SWIDTH 500 0
DWIDTH 12 0
BBX 10 17 1 0
BITMAP
FFC0
FFC0
00C0
01C0
0180
0380
0300
0700
0E00
1C00
3800
7000
E000
C000
C000
FFC0
FFC0
ENDCHAR
STARTCHAR bracketleft
ENCODING 91
SWIDTH 389 0
DWIDTH 9 0
BBX 5 22 2 -5
BITMAP
F8
C0
C0
C0
C0
C0
C0
C0
C0
C0
C0
C0
C0
C0
C0
C0
C0
C0
C0
C0
E0
F8
ENDCHAR
STARTCHAR backslash
ENCODING 92
SWIDTH 278 0
DWIDTH 7 0
BBX 8 17 -1 0
BITMAP
C0
C0
60
60
30
30
38
18
18
0C
0C
06
06
06
03
03
01
ENDCHAR
STARTCHAR bracketright
ENCODING 93
SWIDTH 389 0
DWIDTH 9 0
BBX 5 22 2 -5
BITMAP
F8
18
18
18
18
18
18
18
18
18
18
18
18
18
18
18
18
18
18
18
18
F8
ENDCHAR
STARTCHAR asciicircum
ENCODING 94
SWIDTH 600 0
DWIDTH 14 0
BBX 11 11 2 6
BITMAP
0C00
0E00
1E00
1B00
3300
3180
6180
6080
C0C0
C0C0
C060
ENDCHAR
STARTCHAR underscore
ENCODING 95
SWIDTH 500 0
DWIDTH 12 0
BBX 12 1 0 -3
BITMAP
FFF0
ENDCHAR
STARTCHAR grave
ENCODING 96
SWIDTH 222 0
DWIDTH 5 0
BBX 7 3 -1 14
BITMAP
60
F8
1E
ENDCHAR
STARTCHAR a
ENCODING 97
SWIDTH 500 0
DWIDTH 12 0
BBX 11 13 0 0
BITMAP
7F80
7FC0
00C0
00C0
01E0
1FE0
78E0
60E0
E0E0
C0E0
60E0
7FE0
3E40
ENDCHAR
STARTCHAR b
ENCODING 98
SWIDTH 556 0
DWIDTH 13 0
BBX 11 17 1 0
BITMAP
4000
E000
E000
E000
FC00
FF00
E7C0
E1C0
E0E0
E060
E060
E060
E060
E060
E0E0
FFC0
7F00
ENDCHAR
STARTCHAR c
ENCODING 99
SWIDTH 500 0
DWIDTH 12 0
BBX 11 13 1 0
BITMAP
1FC0
7FC0
7000
E000
C000
C000
C000
C000
E000
7000
3800
1FE0
0FE0
ENDCHAR
STARTCHAR d
ENCODING 100
SWIDTH 556 0
DWIDTH 13 0
BBX 11 17 1 0
BITMAP
0060
0060
0060
0060
07E0
1FE0
3C60
7060
E060
C060
C060
C060
C060
E060
E060
7FE0
1FE0
ENDCHAR
STARTCHAR e
ENCODING 101
SWIDTH 556 0
DWIDTH 13 0
BBX 11 13 1 0
BITMAP
1F00
3FC0
70E0
E060
C060
FFE0
FFE0
C000
C000
E000
7000
3FE0
1FE0
ENDCHAR
STARTCHAR f
ENCODING 102
SWIDTH 333 0
DWIDTH 8 0
BBX 8 17 1 0
BITMAP
1F
3F
30
30
FE
FE
30
30
30
30
30
30
30
30
30
30
30
ENDCHAR
STARTCHAR g
ENCODING 103
SWIDTH 556 0
DWIDTH 13 0
BBX 12 18 1 -5
BITMAP
07F0
1FE0
78C0
60C0
E0C0
C0C0
C0C0
C0C0
C0C0
C0C0
70C0
3FE0
1FF0
0030
0030
C070
FFE0
3F80
ENDCHAR
STARTCHAR h
ENCODING 104
SWIDTH 556 0
DWIDTH 13 0
BBX 10 17 2 0
BITMAP
C000
C000
C000
C000
DF00
FF80
E180
C1C0
C0C0
C0C0
C0C0
C0C0
C0C0
C0C0
C0C0
C0C0
C0C0
ENDCHAR
STARTCHAR i
ENCODING 105
SWIDTH 222 0
DWIDTH 5 0
BBX 2 17 2 0
BITMAP
C0
C0
80
00
C0
C0
C0
C0
C0
C0
C0
C0
C0
C0
C0
C0
C0
ENDCHAR
STARTCHAR j
ENCODING 106
SWIDTH 222 0
DWIDTH 5 0
BBX 8 22 -4 -5
BITMAP
03
03
02
00
03
03
03
03
03
03
03
03
03
03
03
03
03
03
07
06
FE
FC
ENDCHAR
STARTCHAR k
ENCODING 107
SWIDTH 500 0
DWIDTH 12 0
BBX 10 17 2 0
BITMAP
C000
C000
C000
C000
C180
C380
C300
CE00
FC00
FE00
C700
C380
C180
C180
C1C0
C1C0
8080
ENDCHAR
STARTCHAR l
ENCODING 108
SWIDTH 222 0
DWIDTH 5 0
BBX 2 17 2 0
BITMAP
C0
C0
C0
C0
C0
C0
C0
C0
C0
C0
C0
C0
C0
C0
C0
C0
C0
ENDCHAR
STARTCHAR m
ENCODING 109
SWIDTH 889 0
DWIDTH 21 0
BBX 18 13 2 0
BITMAP
9E1E00
BFBF80
E1E180
C1C1C0
C0C0C0
C0C0C0
C0C0C0
C0C0C0
C0C0C0
C0C0C0
C0C0C0
C0C0C0
80C0C0
ENDCHAR
STARTCHAR n
ENCODING 110
SWIDTH 556 0
DWIDTH 13 0
BBX 10 13 2 0
BITMAP
9F00
BF80
E180
C1C0
C0C0
C0C0
C0C0
C0C0
C0C0
C0C0
C0C0
C0C0
C0C0
ENDCHAR
STARTCHAR o
ENCODING 111
SWIDTH 556 0
DWIDTH 13 0
BBX 11 13 1 0
BITMAP
1F00
3F80
70C0
E0E0
C060
C060
C060
C060
C060
E0E0
70C0
3F80
1F00
ENDCHAR
STARTCHAR p
ENCODING 112
SWIDTH 556 0
DWIDTH 13 0
BBX 11 18 1 -5
BITMAP
7E00
FF00
E3C0
E0C0
E0E0
E060
E060
E060
E060
E060
E0E0
FFC0
FF00
E000
E000
E000
E000
4000
ENDCHAR
STARTCHAR q
ENCODING 113
SWIDTH 556 0
DWIDTH 13 0
BBX 11 18 1 -5
BITMAP
07E0
1FE0
3860
7060
E060
C060
C060
C060
C060
E060
7060
7FE0
1FE0
0060
0060
0060
0060
0060
ENDCHAR
STARTCHAR r
ENCODING 114
SWIDTH 333 0
DWIDTH 8 0
BBX 6 13 2 0
BITMAP
DC
FC
E0
C0
C0
C0
C0
C0
C0
C0
C0
C0
C0
ENDCHAR
STARTCHAR s
ENCODING 115
SWIDTH 500 0
DWIDTH 12 0
BBX 10 13 1 0
BITMAP
7F80
FF80
C000
E000
FF00
3F80
01C0
00C0
00C0
00C0
01C0
FF80
FF00
ENDCHAR
STARTCHAR t
ENCODING 116
SWIDTH 333 0
DWIDTH 8 0
BBX 7 16 1 0
BITMAP
30
30
30
FE
FE
30
30
30
30
30
30
30
30
30
3E
1E
ENDCHAR
STARTCHAR u
ENCODING 117
SWIDTH 556 0
DWIDTH 13 0
BBX 10 13 2 0
BITMAP
C0C0
C0C0
C0C0
C0C0
C0C0
C0C0
C0C0
C0C0
C1C0
C1C0
E3C0
7FC0
3CC0
ENDCHAR
STARTCHAR v
ENCODING 118
SWIDTH 500 0
DWIDTH 12 0
BBX 10 13 1 0
BITMAP
8040
C0C0
C0C0
C0C0
C0C0
C1C0
6180
6180
3300
3300
1E00
1E00
0C00
ENDCHAR
STARTCHAR w
ENCODING 119
SWIDTH 722 0
DWIDTH 17 0
BBX 16 13 1 0
BITMAP
C102
C183
C183
C386
C386
C386
C2C6
C6C6
66E6
6C6C
7C6C
3C38
1818
ENDCHAR
STARTCHAR x
ENCODING 120
SWIDTH 500 0
DWIDTH 12 0
BBX 10 13 1 0
BITMAP
C0C0
C0C0
E1C0
6180
7380
3F00
1E00
3F00
7380
E1C0
C0C0
C0C0
C0C0
ENDCHAR
STARTCHAR y
ENCODING 121
SWIDTH 500 0
DWIDTH 12 0
BBX 11 18 1 -5
BITMAP
8040
C060
C0E0
C0C0
C0C0
E0C0
61C0
6180
3380
3300
1F00
1E00
0C00
1C00
1800
3800
7000
2000
ENDCHAR
STARTCHAR z
ENCODING 122
SWIDTH 444 0
DWIDTH 11 0
BBX 10 13 0 0
BITMAP
7FC0
7FC0
00C0
0180
0380
0700
0E00
1C00
3800
7000
6000
FFC0
7FC0
ENDCHAR
STARTCHAR braceleft
ENCODING 123
SWIDTH 389 0
DWIDTH 9 0
BBX 7 22 1 -5
BITMAP
1E
30
30
30
30
30
30
30
30
70
E0
E0
30
30
30
30
30
30
30
30
38
1E
ENDCHAR
STARTCHAR bar
ENCODING 124
SWIDTH 222 0
DWIDTH 5 0
BBX 2 24 2 -6
BITMAP
C0
C0
C0
C0
C0
C0
C0
C0
C0
C0
C0
C0
C0
C0
C0
C0
C0
C0
C0
C0
C0
C0
C0
C0
ENDCHAR
STARTCHAR braceright
ENCODING 125
SWIDTH 389 0
DWIDTH 9 0
BBX 7 22 1 -5
BITMAP
F8
18
18
18
18
18
18
18
18
0C
06
0E
0C
18
18
18
18
18
18
18
38
F0
ENDCHAR
STARTCHAR asciitilde
ENCODING 126
SWIDTH 600 0
DWIDTH 14 0
BBX 11 4 2 4
BITMAP
7000
FC60
87C0
8380
ENDCHAR
STARTCHAR uni00A0
ENCODING 160
SWIDTH 305 0
DWIDTH 7 0
BBX 1 1 0 0
BITMAP
00
ENDCHAR
STARTCHAR exclamdown
ENCODING 161
SWIDTH 278 0
DWIDTH 7 0
BBX 3 17 2 -5
BITMAP
C0
C0
40
00
40
C0
C0
C0
C0
C0
C0
C0
C0
C0
C0
E0
C0
ENDCHAR
STARTCHAR cent
ENCODING 162
SWIDTH 611 0
DWIDTH 15 0
BBX 10 17 2 0
BITMAP
0600
0600
0600
1F80
7F80
6600
C600
C600
C600
E600
6600
3E00
1FC0
0780
0600
0600
0600
ENDCHAR
STARTCHAR sterling
ENCODING 163
SWIDTH 611 0
DWIDTH 15 0
BBX 13 17 0 0
BITMAP
01F0
03F8
0708
0600
0E00
0E00
0E00
3FF0
3FF0
0E00
0E00
0E00
0E00
0C00
1C00
FFF0
FFF0
ENDCHAR
STARTCHAR currency
ENCODING 164
SWIDTH 611 0
DWIDTH 15 0
BBX 12 12 1 2
BITMAP
4F90
7FF0
30E0
6070
E030
C030
C030
6030
6070
30E0
7FF0
4F10
ENDCHAR
STARTCHAR yen
ENCODING 165
SWIDTH 611 0
DWIDTH 15 0
BBX 12 17 1 0
BITMAP
C030
E030
6030
7060
30E0
F8F0
FFF0
0F80
0700
7FF0
7FF0
0600
0600
0600
0600
0600
0600
ENDCHAR
STARTCHAR brokenbar
ENCODING 166
SWIDTH 222 0
DWIDTH 5 0
BBX 2 20 2 -4
BITMAP
C0
C0
C0
C0
C0
C0
C0
C0
00
00
00
00
C0
C0
C0
C0
C0
C0
C0
C0
ENDCHAR
STARTCHAR section
ENCODING 167
SWIDTH 500 0
DWIDTH 12 0
BBX 10 17 1 0
BITMAP
3F80
7F80
E000
E000
7800
FF00
CF80
C3C0
F8C0
7EC0
0FC0
0180
01C0
00C0
0180
FF80
FF00
ENDCHAR
STARTCHAR dieresis
ENCODING 168
SWIDTH 222 0
DWIDTH 5 0
BBX 8 3 -1 14
BITMAP
C6
C7
02
ENDCHAR
STARTCHAR copyright
ENCODING 169
SWIDTH 800 0
DWIDTH 19 0
BBX 17 17 1 0
BITMAP
03E000
0FF800
180E00
31E600
67F300
6E1980
CC1980
CC0180
CC0180
CC0180
CC1980
661100
63F300
31C600
180E00
0FF800
03E000
ENDCHAR
STARTCHAR ordfeminine
ENCODING 170
SWIDTH 300 0
DWIDTH 7 0
BBX 7 8 0 9
BITMAP
7C
06
06
3E
C6
86
C6
7E
ENDCHAR
STARTCHAR guillemotleft
ENCODING 171
SWIDTH 444 0
DWIDTH 11 0
BBX 8 9 1 2
BITMAP
33
33
66
E6
CC
C6
66
63
33
ENDCHAR
STARTCHAR logicalnot
ENCODING 172
SWIDTH 600 0
DWIDTH 14 0
BBX 12 7 1 2
BITMAP
FFF0
FFF0
0030
0030
0030
0030
0030
ENDCHAR
STARTCHAR uni00AD
ENCODING 173
SWIDTH 333 0
DWIDTH 8 0
BBX 6 2 1 5
BITMAP
FC
FC
ENDCHAR
STARTCHAR registered
ENCODING 174
SWIDTH 800 0
DWIDTH 19 0
BBX 17 17 1 0
BITMAP
03E000
0FF800
180E00
300600
67F300
661900
C61980
C63180
C7E180
C64180
C66180
663100
663300
300600
180E00
0FF800
03E000
ENDCHAR
STARTCHAR macron
ENCODING 175
SWIDTH 222 0
DWIDTH 5 0
BBX 7 2 -1 14
BITMAP
FE
7E
ENDCHAR
STARTCHAR degree
ENCODING 176
SWIDTH 400 0
DWIDTH 10 0
BBX 7 7 1 10
BITMAP
3C
6E
C6
C2
C6
6E
3C
ENDCHAR
STARTCHAR plusminus
ENCODING 177
SWIDTH 600 0
DWIDTH 14 0
BBX 12 13 1 0
BITMAP
0600
0600
0600
FFF0
FFF0
0600
0600
0600
0600
0000
0000
FFF0
FFF0
ENDCHAR
STARTCHAR twosuperior
ENCODING 178
SWIDTH 366 0
DWIDTH 9 0
BBX 8 11 0 6
BITMAP
7E
0E
03
02
06
1C
38
60
40
C0
7F
ENDCHAR
STARTCHAR threesuperior
ENCODING 179
SWIDTH 366 0
DWIDTH 9 0
BBX 8 11 0 6
BITMAP
7E
0C
18
3C
06
03
03
03
03
0E
FC
ENDCHAR
STARTCHAR acute
ENCODING 180
SWIDTH 222 0
DWIDTH 5 0
BBX 7 3 -1 14
BITMAP
0E
3E
F0
ENDCHAR
STARTCHAR mu
ENCODING 181
SWIDTH 556 0
DWIDTH 13 0
BBX 10 18 2 -5
BITMAP
C0C0
C0C0
C0C0
C0C0
C0C0
C0C0
C0C0
C0C0
C1C0
C1C0
E3C0
FFC0
FCC0
C000
C000
C000
C000
C000
ENDCHAR
STARTCHAR paragraph
ENCODING 182
SWIDTH 600 0
DWIDTH 14 0
BBX 11 17 1 0
BITMAP
1FE0
7FE0
FE60
FE60
FE60
FE60
FE60
7E60
3E60
0660
0660
0660
0660
0660
0660
0660
0660
ENDCHAR
STARTCHAR periodcentered
ENCODING 183
SWIDTH 305 0
DWIDTH 7 0
BBX 3 3 2 5
BITMAP
40
E0
60
ENDCHAR
STARTCHAR cedilla
ENCODING 184
SWIDTH 222 0
DWIDTH 5 0
BBX 6 6 0 -5
BITMAP
20
20
38
0C
8C
78
ENDCHAR
STARTCHAR onesuperior
ENCODING 185
SWIDTH 366 0
DWIDTH 9 0
BBX 6 11 1 6
BITMAP
70
F0
30
30
30
30
30
30
30
30
FC
ENDCHAR
STARTCHAR ordmasculine
ENCODING 186
SWIDTH 334 0
DWIDTH 8 0
BBX 8 8 0 9
BITMAP
3C
66
C2
C3
C3
C2
66
3C
ENDCHAR
STARTCHAR guillemotright
ENCODING 187
SWIDTH 444 0
DWIDTH 11 0
BBX 8 9 2 2
BITMAP
8C
CC
C6
66
73
66
E6
CC
8C
ENDCHAR
STARTCHAR onequarter
ENCODING 188
SWIDTH 916 0
DWIDTH 22 0
BBX 20 17 1 0
BITMAP
700300
F00300
300600
300C00
300C00
301800
303000
303080
3063C0
30C7C0
FCC6C0
018CC0
0308C0
0218C0
061FF0
0C00C0
0800C0
ENDCHAR
STARTCHAR onehalf
ENCODING 189
SWIDTH 916 0
DWIDTH 22 0
BBX 19 17 1 0
BITMAP
700200
F00600
300C00
300C00
301800
303000
303000
306000
30CFE0
30C060
FD8060
030060
0301C0
060700
0C0C00
080C00
180FE0
ENDCHAR
STARTCHAR threequarters
ENCODING 190
SWIDTH 916 0
DWIDTH 22 0
BBX 20 17 1 0
BITMAP
FC0100
0C0300
300600
7C0600
0E0C00
021800
031800
0330C0
0261C0
0E6340
FCC640
018C40
018C40
030840
060FF0
060040
0C0040
ENDCHAR
STARTCHAR questiondown
ENCODING 191
SWIDTH 500 0
DWIDTH 12 0
BBX 10 17 1 -5
BITMAP
0300
0700
0200
0000
0200
0600
0600
0E00
1C00
3800
7000
E000
E000
E000
6000
7FC0
3FC0
ENDCHAR
STARTCHAR Agrave
ENCODING 192
SWIDTH 667 0
DWIDTH 16 0
BBX 14 21 1 0
BITMAP
0C00
0F80
01C0
0000
0300
0780
0F80
0CC0
18E0
1860
3860
3E30
7FB0
61F8
6078
E038
C01C
C01C
C00C
C00C
C00C
ENDCHAR
STARTCHAR Aacute
ENCODING 193
SWIDTH 667 0
DWIDTH 16 0
BBX 14 21 1 0
BITMAP
00C0
07C0
0F00
0000
0300
0780
0F80
0CC0
18E0
1860
3860
3E30
7FB0
61F8
6078
E038
C01C
C01C
C00C
C00C
C00C
ENDCHAR
STARTCHAR Acircumflex
ENCODING 194
SWIDTH 667 0
DWIDTH 16 0
BBX 14 21 1 0
BITMAP
0780
0EC0
0CE0
0000
0300
0780
0F80
0CC0
18E0
1860
3860
3E30
7FB0
61F8
6078
E038
C01C
C01C
C00C
C00C
C00C
ENDCHAR
STARTCHAR Atilde
ENCODING 195
SWIDTH 667 0
DWIDTH 16 0
BBX 14 21 1 0
BITMAP
0C20
1FE0
11C0
0000
0300
0780
0F80
0CC0
18E0
1860
3860
3E30
7FB0
61F8
6078
E038
C01C
C01C
C00C
C00C
C00C
ENDCHAR
STARTCHAR Adieresis
ENCODING 196
SWIDTH 667 0
DWIDTH 16 0
BBX 14 21 1 0
BITMAP
0840
1CE0
1860
0000
0300
0780
0F80
0CC0
18E0
1860
3860
3E30
7FB0
61F8
6078
E038
C01C
C01C
C00C
C00C
C00C
ENDCHAR
STARTCHAR Aring
ENCODING 197
SWIDTH 667 0
DWIDTH 16 0
BBX 14 22 1 0
BITMAP
0380
04C0
04C0
0780
0000
0300
0780
0F80
0CC0
18E0
1860
3860
3E30
7FB0
61F8
6078
E038
C01C
C01C
C00C
C00C
C00C
ENDCHAR
STARTCHAR AE
ENCODING 198
SWIDTH 944 0
DWIDTH 23 0
BBX 22 17 0 0
BITMAP
003FFC
007FFC
00EC00
038C00
030FF8
063FF8
0CFC00
0DCC00
1F0C00
1E0C00
380C00
380C00
700C00
600C00
600C00
C00FFC
C00FFC
ENDCHAR
STARTCHAR Ccedilla
ENCODING 199
SWIDTH 611 0
DWIDTH 15 0
BBX 13 22 1 -5
BITMAP
0FF0
3FF0
7800
6000
E000
C000
C000
C000
C000
E000
6000
7000
3800
3C00
1F00
07F8
01F8
0100
01C0
0060
0460
07C0
ENDCHAR
STARTCHAR Egrave
ENCODING 200
SWIDTH 556 0
DWIDTH 13 0
BBX 10 21 2 0
BITMAP
3800
3E00
0700
0000
FFC0
FFC0
C000
C000
FFC0
FFC0
C000
C000
C000
C000
C000
C000
C000
C000
C000
FFC0
FFC0
ENDCHAR
STARTCHAR Eacute
ENCODING 201
SWIDTH 556 0
DWIDTH 13 0
BBX 10 21 2 0
BITMAP
0700
3F00
3800
0000
FFC0
FFC0
C000
C000
FFC0
FFC0
C000
C000
C000
C000
C000
C000
C000
C000
C000
FFC0
FFC0
ENDCHAR
STARTCHAR Ecircumflex
ENCODING 202
SWIDTH 556 0
DWIDTH 13 0
BBX 10 21 2 0
BITMAP
1E00
3600
6300
0000
FFC0
FFC0
C000
C000
FFC0
FFC0
C000
C000
C000
C000
C000
C000
C000
C000
C000
FFC0
FFC0
ENDCHAR
STARTCHAR Edieresis
ENCODING 203
SWIDTH 556 0
DWIDTH 13 0
BBX 10 21 2 0
BITMAP
2100
7380
6300
0000
FFC0
FFC0
C000
C000
FFC0
FFC0
C000
C000
C000
C000
C000
C000
C000
C000
C000
FFC0
FFC0
ENDCHAR
STARTCHAR Igrave
ENCODING 204
SWIDTH 222 0
DWIDTH 5 0
BBX 6 21 0 0
BITMAP
C0
F8
3C
00
30
30
30
30
30
30
30
30
30
30
30
30
30
30
30
30
30
ENDCHAR
STARTCHAR Iacute
ENCODING 205
SWIDTH 222 0
DWIDTH 5 0
BBX 7 21 -1 0
BITMAP
0E
7E
F0
00
18
18
18
18
18
18
18
18
18
18
18
18
18
18
18
18
18
ENDCHAR
STARTCHAR Icircumflex
ENCODING 206
SWIDTH 222 0
DWIDTH 5 0
BBX 7 22 -1 0
BITMAP
10
38
6C
C6
00
18
18
18
18
18
18
18
18
18
18
18
18
18
18
18
18
18
ENDCHAR
STARTCHAR Idieresis
ENCODING 207
SWIDTH 222 0
DWIDTH 5 0
BBX 8 21 -1 0
BITMAP
02
C7
C6
00
18
18
18
18
18
18
18
18
18
18
18
18
18
18
18
18
18
ENDCHAR
STARTCHAR Eth
ENCODING 208
SWIDTH 667 0
DWIDTH 16 0
BBX 15 17 0 0
BITMAP
3F00
3FC0
31E0
3078
3038
301C
300C
FF0E
FF06
3006
3006
3006
300E
300C
301C
3FF8
3FE0
ENDCHAR
STARTCHAR Ntilde
ENCODING 209
SWIDTH 611 0
DWIDTH 15 0
BBX 11 21 2 0
BITMAP
1C80
3F80
4300
0000
C060
E060
F060
F860
DC60
CFE0
C3E0
C060
C060
C060
C060
C060
C060
C060
C060
C060
C060
ENDCHAR
STARTCHAR Ograve
ENCODING 210
SWIDTH 722 0
DWIDTH 17 0
BBX 15 21 1 0
BITMAP
0600
0FC0
01E0
0000
07C0
1FF0
3C38
701C
600C
E00E
E006
C006
C006
C006
E006
E00E
600C
701C
3838
1FF0
07C0
ENDCHAR
STARTCHAR Oacute
ENCODING 211
SWIDTH 722 0
DWIDTH 17 0
BBX 15 21 1 0
BITMAP
00E0
03E0
0F00
0000
07C0
1FF0
3C38
701C
600C
E00E
E006
C006
C006
C006
E006
E00E
600C
701C
3838
1FF0
07C0
ENDCHAR
STARTCHAR Ocircumflex
ENCODING 212
SWIDTH 722 0
DWIDTH 17 0
BBX 15 22 1 0
BITMAP
0100
0380
06C0
0C60
0000
07C0
1FF0
3C38
701C
600C
E00E
E006
C006
C006
C006
E006
E00E
600C
701C
3838
1FF0
07C0
ENDCHAR
STARTCHAR Otilde
ENCODING 213
SWIDTH 722 0
DWIDTH 17 0
BBX 15 21 1 0
BITMAP
0410
0FF0
08E0
0000
07C0
1FF0
3C38
701C
600C
E00E
E006
C006
C006
C006
E006
E00E
600C
701C
3838
1FF0
07C0
ENDCHAR
STARTCHAR Odieresis
ENCODING 214
SWIDTH 722 0
DWIDTH 17 0
BBX 15 21 1 0
BITMAP
0020
0C70
0C60
0000
07C0
1FF0
3C38
701C
600C
E00E
E006
C006
C006
C006
E006
E00E
600C
701C
3838
1FF0
07C0
ENDCHAR
STARTCHAR multiply
ENCODING 215
SWIDTH 600 0
DWIDTH 14 0
BBX 12 13 1 0
BITMAP
4020
E070
7060
38C0
1D80
0F80
0700
0F80
1D80
38C0
7060
E070
4020
ENDCHAR
STARTCHAR Oslash
ENCODING 216
SWIDTH 722 0
DWIDTH 17 0
BBX 15 21 1 -2
BITMAP
0010
0018
07F0
1FF0
3C78
707C
60CC
E0CE
E086
C186
C106
C306
E206
E60E
660C
7C1C
3C38
1FF0
1FC0
3000
3000
ENDCHAR
STARTCHAR Ugrave
ENCODING 217
SWIDTH 611 0
DWIDTH 15 0
BBX 13 21 1 0
BITMAP
1C00
1F80
03C0
0000
6020
6070
6030
6030
6030
6030
C030
C030
C030
C018
C018
C018
C038
E030
70F0
3FE0
0F80
ENDCHAR
STARTCHAR Uacute
ENCODING 218
SWIDTH 611 0
DWIDTH 15 0
BBX 13 21 1 0
BITMAP
0180
0F80
1E00
0000
6020
6070
6030
6030
6030
6030
C030
C030
C030
C018
C018
C018
C038
E030
70F0
3FE0
0F80
ENDCHAR
STARTCHAR Ucircumflex
ENCODING 219
SWIDTH 611 0
DWIDTH 15 0
BBX 13 22 1 0
BITMAP
0200
0700
0D80
18C0
0000
6020
6070
6030
6030
6030
6030
C030
C030
C030
C018
C018
C018
C038
E030
70F0
3FE0
0F80
ENDCHAR
STARTCHAR Udieresis
ENCODING 220
SWIDTH 611 0
DWIDTH 15 0
BBX 13 21 1 0
BITMAP
1000
38C0
18C0
0000
6020
6070
6030
6030
6030
6030
C030
C030
C030
C018
C018
C018
C038
E030
70F0
3FE0
0F80
ENDCHAR
STARTCHAR Yacute
ENCODING 221
SWIDTH 556 0
DWIDTH 13 0
BBX 12 21 1 0
BITMAP
0380
0F80
1C00
0000
C030
C070
C060
E060
60C0
71C0
3B80
1F00
0E00
0600
0600
0600
0600
0600
0600
0600
0600
ENDCHAR
STARTCHAR Thorn
ENCODING 222
SWIDTH 556 0
DWIDTH 13 0
BBX 11 17 2 0
BITMAP
C000
C000
C000
FFC0
FFE0
C060
C060
C0E0
C1C0
CF80
FF00
F800
C000
C000
C000
C000
C000
ENDCHAR
STARTCHAR germandbls
ENCODING 223
SWIDTH 556 0
DWIDTH 13 0
BBX 12 17 1 0
BITMAP
1F00
7F80
6180
6380
E700
EE00
6C00
6C00
6F80
63E0
6060
6030
6030
6030
6060
7FE0
7F80
ENDCHAR
STARTCHAR agrave
ENCODING 224
SWIDTH 500 0
DWIDTH 12 0
BBX 11 18 0 0
BITMAP
1800
1E00
0780
0080
0000
7F80
7FC0
00C0
00C0
01E0
1FE0
78E0
60E0
E0E0
C0E0
60E0
7FE0
3E40
ENDCHAR
STARTCHAR aacute
ENCODING 225
SWIDTH 500 0
DWIDTH 12 0
BBX 11 18 0 0
BITMAP
0180
0F80
1E00
0000
0000
7F80
7FC0
00C0
00C0
01E0
1FE0
78E0
60E0
E0E0
C0E0
60E0
7FE0
3E40
ENDCHAR
STARTCHAR acircumflex
ENCODING 226
SWIDTH 500 0
DWIDTH 12 0
BBX 11 18 0 0
BITMAP
0600
0F00
1980
3080
0000
7F80
7FC0
00C0
00C0
01E0
1FE0
78E0
60E0
E0E0
C0E0
60E0
7FE0
3E40
ENDCHAR
STARTCHAR atilde
ENCODING 227
SWIDTH 500 0
DWIDTH 12 0
BBX 11 18 0 0
BITMAP
1840
3FC0
2380
0000
0000
7F80
7FC0
00C0
00C0
01E0
1FE0
78E0
60E0
E0E0
C0E0
60E0
7FE0
3E40
ENDCHAR
STARTCHAR adieresis
ENCODING 228
SWIDTH 500 0
DWIDTH 12 0
BBX 11 17 0 0
BITMAP
3180
39C0
1080
0000
7F80
7FC0
00C0
00C0
01E0
1FE0
78E0
60E0
E0E0
C0E0
60E0
7FE0
3E40
ENDCHAR
STARTCHAR aring
ENCODING 229
SWIDTH 500 0
DWIDTH 12 0
BBX 11 19 0 0
BITMAP
0E00
0900
1900
0900
0E00
0000
7F80
7FC0
00C0
00C0
01E0
1FE0
78E0
60E0
E0E0
C0E0
60E0
7FE0
3E40
ENDCHAR
STARTCHAR ae
ENCODING 230
SWIDTH 833 0
DWIDTH 20 0
BBX 18 13 1 0
BITMAP
FF1E00
FFFF80
01E180
01C0C0
03FFC0
3FFFC0
F18000
C1C000
C1C000
C1C000
C1E000
FFFFC0
3F3FC0
ENDCHAR
STARTCHAR ccedilla
ENCODING 231
SWIDTH 500 0
DWIDTH 12 0
BBX 11 18 1 -5
BITMAP
1FC0
7FC0
7000
E000
C000
C000
C000
C000
E000
7000
3800
1FE0
0FE0
0600
0700
0180
1180
0F00
ENDCHAR
STARTCHAR egrave
ENCODING 232
SWIDTH 556 0
DWIDTH 13 0
BBX 11 18 1 0
BITMAP
1000
1E00
0F80
0080
0000
1F00
3FC0
70E0
E060
C060
FFE0
FFE0
C000
C000
E000
7000
3FE0
1FE0
ENDCHAR
STARTCHAR eacute
ENCODING 233
SWIDTH 556 0
DWIDTH 13 0
BBX 11 18 1 0
BITMAP
0180
0780
1F00
1000
0000
1F00
3FC0
70E0
E060
C060
FFE0
FFE0
C000
C000
E000
7000
3FE0
1FE0
ENDCHAR
STARTCHAR ecircumflex
ENCODING 234
SWIDTH 556 0
DWIDTH 13 0
BBX 11 18 1 0
BITMAP
0600
0F00
1980
3080
0000
1F00
3FC0
70E0
E060
C060
FFE0
FFE0
C000
C000
E000
7000
3FE0
1FE0
ENDCHAR
STARTCHAR edieresis
ENCODING 235
SWIDTH 556 0
DWIDTH 13 0
BBX 11 17 1 0
BITMAP
3180
39C0
1080
0000
1F00
3FC0
70E0
E060
C060
FFE0
FFE0
C000
C000
E000
7000
3FE0
1FE0
ENDCHAR
STARTCHAR igrave
ENCODING 236
SWIDTH 222 0
DWIDTH 5 0
BBX 7 18 -1 0
BITMAP
40
F8
3E
02
00
18
18
18
18
18
18
18
18
18
18
18
18
18
ENDCHAR
STARTCHAR iacute
ENCODING 237
SWIDTH 222 0
DWIDTH 5 0
BBX 7 18 -1 0
BITMAP
04
3E
F8
40
00
18
18
18
18
18
18
18
18
18
18
18
18
18
ENDCHAR
STARTCHAR icircumflex
ENCODING 238
SWIDTH 222 0
DWIDTH 5 0
BBX 7 18 -1 0
BITMAP
38
3C
6E
C2
00
18
18
18
18
18
18
18
18
18
18
18
18
18
ENDCHAR
STARTCHAR idieresis
ENCODING 239
SWIDTH 222 0
DWIDTH 5 0
BBX 8 17 -1 0
BITMAP
C6
C7
02
00
18
18
18
18
18
18
18
18
18
18
18
18
18
ENDCHAR
STARTCHAR eth
ENCODING 240
SWIDTH 556 0
DWIDTH 13 0
BBX 11 18 1 0
BITMAP
0080
7980
1F00
1F00
1980
01C0
0CC0
3FE0
71E0
60E0
C060
C060
C060
C060
E060
70C0
3FC0
1F00
ENDCHAR
STARTCHAR ntilde
ENCODING 241
SWIDTH 556 0
DWIDTH 13 0
BBX 10 18 2 0
BITMAP
2080
7F80
4F00
0000
0000
9F00
BF80
E180
C1C0
C0C0
C0C0
C0C0
C0C0
C0C0
C0C0
C0C0
C0C0
C0C0
ENDCHAR
STARTCHAR ograve
ENCODING 242
SWIDTH 556 0
DWIDTH 13 0
BBX 11 18 1 0
BITMAP
1000
3E00
0F80
0180
0000
1F00
3F80
70C0
E0E0
C060
C060
C060
C060
C060
E0E0
70C0
3F80
1F00
ENDCHAR
STARTCHAR oacute
ENCODING 243
SWIDTH 556 0
DWIDTH 13 0
BBX 11 18 1 0
BITMAP
0100
0780
1F00
1000
0000
1F00
3F80
70C0
E0E0
C060
C060
C060
C060
C060
E0E0
70C0
3F80
1F00
ENDCHAR
STARTCHAR ocircumflex
ENCODING 244
SWIDTH 556 0
DWIDTH 13 0
BBX 11 18 1 0
BITMAP
0E00
0F00
1980
3080
0000
1F00
3F80
70C0
E0E0
C060
C060
C060
C060
C060
E0E0
70C0
3F80
1F00
ENDCHAR
STARTCHAR otilde
ENCODING 245
SWIDTH 556 0
DWIDTH 13 0
BBX 11 18 1 0
BITMAP
1040
3FC0
2780
0000
0000
1F00
3F80
70C0
E0E0
C060
C060
C060
C060
C060
E0E0
70C0
3F80
1F00
ENDCHAR
STARTCHAR odieresis
ENCODING 246
SWIDTH 556 0
DWIDTH 13 0
BBX 11 17 1 0
BITMAP
3180
31C0
2080
0000
1F00
3F80
70C0
E0E0
C060
C060
C060
C060
C060
E0E0
70C0
3F80
1F00
ENDCHAR
STARTCHAR divide
ENCODING 247
SWIDTH 600 0
DWIDTH 14 0
BBX 12 13 1 0
BITMAP
0600
0F00
0700
0000
0000
0000
FFF0
FFF0
0000
0000
0600
0F00
0700
ENDCHAR
STARTCHAR oslash
ENCODING 248
SWIDTH 556 0
DWIDTH 13 0
BBX 11 17 1 -2
BITMAP
00C0
00C0
1F80
3F80
73C0
E3E0
C260
C660
C460
CC60
CC60
F8E0
78C0
3F80
3F00
2000
6000
ENDCHAR
STARTCHAR ugrave
ENCODING 249
SWIDTH 556 0
DWIDTH 13 0
BBX 10 18 2 0
BITMAP
2000
7C00
1F00
0100
0000
C0C0
C0C0
C0C0
C0C0
C0C0
C0C0
C0C0
C0C0
C1C0
C1C0
E3C0
7FC0
3CC0
ENDCHAR
STARTCHAR uacute
ENCODING 250
SWIDTH 556 0
DWIDTH 13 0
BBX 10 18 2 0
BITMAP
0300
1F00
7C00
2000
0000
C0C0
C0C0
C0C0
C0C0
C0C0
C0C0
C0C0
C0C0
C1C0
C1C0
E3C0
7FC0
3CC0
ENDCHAR
STARTCHAR ucircumflex
ENCODING 251
SWIDTH 556 0
DWIDTH 13 0
BBX 10 18 2 0
BITMAP
1C00
1E00
3300
6100
0000
C0C0
C0C0
C0C0
C0C0
C0C0
C0C0
C0C0
C0C0
C1C0
C1C0
E3C0
7FC0
3CC0
ENDCHAR
STARTCHAR udieresis
ENCODING 252
SWIDTH 556 0
DWIDTH 13 0
BBX 10 17 2 0
BITMAP
6300
6380
4100
0000
C0C0
C0C0
C0C0
C0C0
C0C0
C0C0
C0C0
C0C0
C1C0
C1C0
E3C0
7FC0
3CC0
ENDCHAR
STARTCHAR yacute
ENCODING 253
SWIDTH 500 0
DWIDTH 12 0
BBX 11 23 1 -5
BITMAP
0300
0F00
3E00
2000
0000
8040
C060
C0E0
C0C0
C0C0
E0C0
61C0
6180
3380
3300
1F00
1E00
0C00
1C00
1800
3800
7000
2000
ENDCHAR
STARTCHAR thorn
ENCODING 254
SWIDTH 556 0
DWIDTH 13 0
BBX 11 22 1 -5
BITMAP
4000
E000
E000
E000
FE00
FF00
E3C0
E0C0
E0E0
E060
E060
E060
E060
E060
E0E0
FFC0
FF00
E000
E000
E000
E000
4000
ENDCHAR
STARTCHAR ydieresis
ENCODING 255
SWIDTH 500 0
DWIDTH 12 0
BBX 11 22 1 -5
BITMAP
6180
7380
2100
0000
8040
C060
C0E0
C0C0
C0C0
E0C0
61C0
6180
3380
3300
1F00
1E00
0C00
1C00
1800
3800
7000
2000
ENDCHAR
STARTCHAR .notdef
ENCODING -1
SWIDTH 500 0
DWIDTH 12 0
BBX 12 17 0 0
BITMAP
FFF0
C030
E070
A050
9090
9990
8910
8610
8610
8610
8910
9990
9090
A050
E070
C030
FFF0
ENDCHAR
STARTCHAR quoteright
ENCODING -1
SWIDTH 222 0
DWIDTH 5 0
BBX 3 6 1 11
BITMAP
60
60
60
C0
C0
C0
ENDCHAR
STARTCHAR quoteleft
ENCODING -1
SWIDTH 222 0
DWIDTH 5 0
BBX 3 6 1 11
BITMAP
C0
C0
C0
60
60
20
ENDCHAR
STARTCHAR fraction
ENCODING -1
SWIDTH 167 0
DWIDTH 4 0
BBX 12 17 -4 0
BITMAP
0030
0030
0060
00C0
00C0
0180
0300
0300
0600
0C00
0C00
1800
3000
3000
6000
C000
C000
ENDCHAR
STARTCHAR florin
ENCODING -1
SWIDTH 611 0
DWIDTH 15 0
BBX 14 22 0 -5
BITMAP
003C
00FC
00C0
01C0
0180
0180
0FF0
0FF0
0380
0300
0300
0300
0300
0300
0300
0700
0600
0600
0600
0C00
FC00
F000
ENDCHAR
STARTCHAR quotedblleft
ENCODING -1
SWIDTH 389 0
DWIDTH 9 0
BBX 7 6 1 11
BITMAP
CC
CC
CC
EE
66
66
ENDCHAR
STARTCHAR guilsinglleft
ENCODING -1
SWIDTH 278 0
DWIDTH 7 0
BBX 4 9 1 2
BITMAP
10
30
30
60
E0
60
70
30
30
ENDCHAR
STARTCHAR guilsinglright
ENCODING -1
SWIDTH 278 0
DWIDTH 7 0
BBX 4 9 1 2
BITMAP
C0
60
60
30
30
30
60
60
C0
ENDCHAR
STARTCHAR fi
ENCODING -1
SWIDTH 500 0
DWIDTH 12 0
BBX 11 17 0 0
BITMAP
0FC0
3FE0
3060
3000
FFE0
FFE0
3060
3060
3060
3060
3060
3060
3060
3060
3060
3060
3060
ENDCHAR
STARTCHAR fl
ENCODING -1
SWIDTH 500 0
DWIDTH 12 0
BBX 11 17 0 0
BITMAP
1FC0
3FE0
3060
3060
FE60
FE60
3060
3060
3060
3060
3060
3060
3060
3060
3060
3060
3060
ENDCHAR
STARTCHAR endash
ENCODING -1
SWIDTH 500 0
DWIDTH 12 0
BBX 12 2 0 5
BITMAP
FFF0
FFF0
ENDCHAR
STARTCHAR dagger
ENCODING -1
SWIDTH 389 0
DWIDTH 9 0
BBX 7 17 1 0
BITMAP
18
18
18
18
FE
FE
18
18
18
18
18
18
18
38
38
38
18
ENDCHAR
STARTCHAR daggerdbl
ENCODING -1
SWIDTH 389 0
DWIDTH 9 0
BBX 7 17 1 0
BITMAP
18
18
18
18
FE
FE
18
18
18
18
18
FE
FE
18
18
18
18
ENDCHAR
STARTCHAR bullet
ENCODING -1
SWIDTH 500 0
DWIDTH 12 0
BBX 8 8 2 4
BITMAP
3C
7E
FF
FF
FF
FF
7E
3C
ENDCHAR
STARTCHAR quotesinglbase
ENCODING -1
SWIDTH 222 0
DWIDTH 5 0
BBX 3 6 1 -3
BITMAP
60
60
60
C0
C0
80
ENDCHAR
STARTCHAR quotedblbase
ENCODING -1
SWIDTH 389 0
DWIDTH 9 0
BBX 7 6 1 -3
BITMAP
66
66
EE
CC
CC
88
ENDCHAR
STARTCHAR quotedblright
ENCODING -1
SWIDTH 389 0
DWIDTH 9 0
BBX 7 6 1 11
BITMAP
66
66
66
CC
CC
88
ENDCHAR
STARTCHAR ellipsis
ENCODING -1
SWIDTH 1000 0
DWIDTH 24 0
BBX 18 2 3 0
BITMAP
C0C0C0
C0C0C0
ENDCHAR
STARTCHAR perthousand
ENCODING -1
SWIDTH 1000 0
DWIDTH 24 0
BBX 24 17 0 0
BITMAP
3C1000
7E3000
C63000
C36000
C36000
C6C000
7EC000
3D8000
018000
033C3C
037E7E
06E363
06C3C3
0CC3C3
0CE363
087E7E
183C3C
ENDCHAR
STARTCHAR circumflex
ENCODING -1
SWIDTH 222 0
DWIDTH 5 0
BBX 7 4 -1 13
BITMAP
38
3C
6E
C2
ENDCHAR
STARTCHAR tilde
ENCODING -1
SWIDTH 222 0
DWIDTH 5 0
BBX 8 3 -1 14
BITMAP
41
FF
8E
ENDCHAR
STARTCHAR breve
ENCODING -1
SWIDTH 222 0
DWIDTH 5 0
BBX 7 4 -1 13
BITMAP
82
C2
7C
30
ENDCHAR
STARTCHAR dotaccent
ENCODING -1
SWIDTH 222 0
DWIDTH 5 0
BBX 3 3 1 14
BITMAP
60
E0
40
ENDCHAR
STARTCHAR ring
ENCODING -1
SWIDTH 222 0
DWIDTH 5 0
BBX 5 4 0 14
BITMAP
70
C8
C8
70
ENDCHAR
STARTCHAR hungarumlaut
ENCODING -1
SWIDTH 222 0
DWIDTH 5 0
BBX 9 6 -1 12
BITMAP
3100
3380
6700
C600
CC00
8800
ENDCHAR
STARTCHAR ogonek
ENCODING -1
SWIDTH 222 0
DWIDTH 5 0
BBX 6 5 -1 -5
BITMAP
18
60
C0
E4
78
ENDCHAR
STARTCHAR caron
ENCODING -1
SWIDTH 222 0
DWIDTH 5 0
BBX 7 4 -1 13
BITMAP
C6
6C
38
10
ENDCHAR
STARTCHAR emdash
ENCODING -1
SWIDTH 1000 0
DWIDTH 24 0
BBX 24 2 0 5
BITMAP
FFFFFF
FFFFFF
ENDCHAR
STARTCHAR Lslash
ENCODING -1
SWIDTH 444 0
DWIDTH 11 0
BBX 12 17 -1 0
BITMAP
1800
1800
1800
1800
1800
1800
1B00
1F00
7800
F800
1800
1800
1800
1800
1800
1FF0
1FF0
ENDCHAR
STARTCHAR OE
ENCODING -1
SWIDTH 1000 0
DWIDTH 24 0
BBX 22 17 1 0
BITMAP
0FCFFC
1FEFFC
387C00
703C00
E01FFC
C00FFC
C00C00
C00C00
C00C00
C00C00
C00C00
E01C00
E01C00
703C00
387C00
1FEFFC
0FCFFC
ENDCHAR
STARTCHAR dotlessi
ENCODING -1
SWIDTH 222 0
DWIDTH 5 0
BBX 2 13 2 0
BITMAP
C0
C0
C0
C0
C0
C0
C0
C0
C0
C0
C0
C0
C0
ENDCHAR
STARTCHAR lslash
ENCODING -1
SWIDTH 222 0
DWIDTH 5 0
BBX 7 17 -1 0
BITMAP
18
18
18
18
18
1E
1E
78
F8
18
18
18
18
18
18
18
18
ENDCHAR
STARTCHAR oe
ENCODING -1
SWIDTH 944 0
DWIDTH 23 0
BBX 21 13 1 0
BITMAP
1F07C0
3F9FE0
71F870
E0F030
C07038
C07FF8
C07FF0
C06000
C07000
E0F000
70F800
3F9FF0
1F0FF8
ENDCHAR
STARTCHAR trademark
ENCODING -1
SWIDTH 990 0
DWIDTH 24 0
BBX 21 11 1 6
BITMAP
FF3838
FF3C38
183C28
183468
183668
183648
1832C8
1833C8
183388
183188
183188
ENDCHAR
STARTCHAR minus
ENCODING -1
SWIDTH 600 0
DWIDTH 14 0
BBX 12 2 1 5
BITMAP
FFF0
FFF0
ENDCHAR
STARTCHAR Scaron
ENCODING -1
SWIDTH 611 0
DWIDTH 15 0
BBX 13 22 1 0
BITMAP
10C0
1D80
0F00
0700
0000
7FE0
FFE0
C000
C000
E000
7F80
3FE0
00F0
0038
0038
0018
0018
0038
0030
00F0
FFE0
FF80
ENDCHAR
STARTCHAR Ydieresis
ENCODING -1
SWIDTH 556 0
DWIDTH 13 0
BBX 12 21 1 0
BITMAP
1080
39C0
30C0
0000
C030
C070
C060
E060
60C0
71C0
3B80
1F00
0E00
0600
0600
0600
0600
0600
0600
0600
0600
ENDCHAR
STARTCHAR Zcaron
ENCODING -1
SWIDTH 500 0
DWIDTH 12 0
BBX 10 22 1 0
BITMAP
2180
3300
1E00
0E00
0000
FFC0
FFC0
00C0
01C0
0180
0380
0300
0700
0E00
1C00
3800
7000
E000
C000
C000
FFC0
FFC0
ENDCHAR
STARTCHAR scaron
ENCODING -1
SWIDTH 500 0
DWIDTH 12 0
BBX 10 18 1 0
BITMAP
7380
3300
1E00
0000
0000
7F80
FF80
C000
E000
FF00
3F80
01C0
00C0
00C0
00C0
01C0
FF80
FF00
ENDCHAR
STARTCHAR zcaron
ENCODING -1
SWIDTH 444 0
DWIDTH 11 0
BBX 10 18 0 0
BITMAP
3180
1B00
0E00
0400
0000
7FC0
7FC0
00C0
0180
0380
0700
0E00
1C00
3800
7000
6000
FFC0
7FC0
ENDCHAR
STARTCHAR Delta
ENCODING -1
SWIDTH 707 0
DWIDTH 17 0
BBX 15 17 1 0
BITMAP
0380
0380
06C0
06C0
0CE0
0C60
0C60
1830
1830
3018
3018
2018
600C
600C
C006
FFFE
FFFE
ENDCHAR
STARTCHAR Omega
ENCODING -1
SWIDTH 795 0
DWIDTH 19 0
BBX 17 17 1 0
BITMAP
008000
0FF800
1C1C00
380E00
300700
600300
600300
600300
600300
600300
600300
600300
300200
300600
180C00
FC1F80
FE3F80
ENDCHAR
STARTCHAR pi
ENCODING -1
SWIDTH 621 0
DWIDTH 15 0
BBX 14 12 0 0
BITMAP
7FFC
FFFC
1830
1830
1830
1830
1830
1830
1030
3030
3030
3030
ENDCHAR
STARTCHAR Euro
ENCODING -1
SWIDTH 611 0
DWIDTH 15 0
BBX 14 17 1 0
BITMAP
07F8
0FF8
1C00
1800
7FC0
FFC0
3000
3000
FFC0
7FC0
1800
1C00
0C00
0F00
07C0
01FC
00FC
ENDCHAR
STARTCHAR estimated
ENCODING -1
SWIDTH 844 0
DWIDTH 20 0
BBX 18 17 1 0
BITMAP
03F000
0C0C00
100300
200180
600180
E001C0
E001C0
E001C0
E001C0
FFFE00
E00000
E00000
600000
600000
300300
080600
07F800
ENDCHAR
STARTCHAR partialdiff
ENCODING -1
SWIDTH 592 0
DWIDTH 14 0
BBX 12 19 1 0
BITMAP
0400
7F80
61C0
00C0
0060
0060
0030
0430
3FB0
70F0
6070
C030
C030
C060
C060
C0E0
60C0
7F80
1F00
ENDCHAR
STARTCHAR product
ENCODING -1
SWIDTH 758 0
DWIDTH 18 0
BBX 17 18 1 -2
BITMAP
FFFF80
FFFF80
100C00
100C00
100C00
100C00
100C00
100C00
100C00
100C00
100C00
100C00
100C00
100C00
100C00
100C00
100C00
100C00
ENDCHAR
STARTCHAR summation
ENCODING -1
SWIDTH 601 0
DWIDTH 14 0
BBX 13 18 1 -2
BITMAP
FFF0
FFF0
6000
3000
1800
1C00
0E00
0700
0300
0300
0600
0C00
1800
3800
3000
6000
FFF8
FFF8
ENDCHAR
STARTCHAR uni2219
ENCODING -1
SWIDTH 305 0
DWIDTH 7 0
BBX 3 3 2 5
BITMAP
40
E0
60
ENDCHAR
STARTCHAR radical
ENCODING -1
SWIDTH 612 0
DWIDTH 15 0
BBX 14 23 1 -4
BITMAP
000C
0008
0008
0018
0018
0010
0010
0030
0030
0020
0020
F060
B060
1840
1840
18C0
0CC0
0C80
0480
0780
0780
0300
0300
ENDCHAR
STARTCHAR infinity
ENCODING -1
SWIDTH 810 0
DWIDTH 19 0
BBX 17 7 1 3
BITMAP
3C0E00
663100
416080
C0C080
C1C080
433180
3C1F00
ENDCHAR
STARTCHAR integral
ENCODING -1
SWIDTH 373 0
DWIDTH 9 0
BBX 9 24 0 -4
BITMAP
0780
0E00
0C00
0800
1800
1800
1800
1800
1800
0800
0800
0800
0800
0800
0800
0800
0C00
0C00
0C00
0800
0800
1800
F800
F000
ENDCHAR
STARTCHAR approxequal
ENCODING -1
SWIDTH 605 0
DWIDTH 15 0
BBX 12 7 1 3
BITMAP
3C10
4730
81E0
0000
3C10
4730
81E0
ENDCHAR
STARTCHAR notequal
ENCODING -1
SWIDTH 605 0
DWIDTH 15 0
BBX 12 12 1 1
BITMAP
0080
0080
0100
FFF0
0200
0200
0600
0400
FFF0
0800
0800
1000
ENDCHAR
STARTCHAR lessequal
ENCODING -1
SWIDTH 605 0
DWIDTH 15 0
BBX 12 14 1 0
BITMAP
0030
00E0
0380
0C00
7000
C000
7000
1C00
0700
01C0
0070
0010
0000
FFF0
ENDCHAR
STARTCHAR greaterequal
ENCODING -1
SWIDTH 605 0
DWIDTH 15 0
BBX 12 15 1 0
BITMAP
8000
E000
3800
0E00
0380
00E0
0010
0070
01C0
0600
3800
E000
8000
0000
FFF0
ENDCHAR
STARTCHAR lozenge
ENCODING -1
SWIDTH 613 0
DWIDTH 15 0
BBX 12 19 1 -1
BITMAP
0200
0700
0D00
0D80
1880
10C0
3040
2060
6030
C030
6030
6020
3060
30C0
18C0
0980
0D80
0700
0600
ENDCHAR
STARTCHAR uni02C9
ENCODING -1
SWIDTH 222 0
DWIDTH 5 0
BBX 7 2 -1 14
BITMAP
FE
7E
ENDCHAR
STARTCHAR uni03A9
ENCODING -1
SWIDTH 795 0
DWIDTH 19 0
BBX 17 17 1 0
BITMAP
008000
0FF800
1C1C00
380E00
300700
600300
600300
600300
600300
600300
600300
600300
300200
300600
180C00
FC1F80
FE3F80
ENDCHAR
STARTCHAR afii61289
ENCODING -1
SWIDTH 528 0
DWIDTH 13 0
BBX 11 18 1 0
BITMAP
0F00
1B00
3180
3080
3080
3180
3180
3300
3200
3600
3C00
3800
7000
F000
B020
3060
1FC0
0F00
ENDCHAR
STARTCHAR uni03BC
ENCODING -1
SWIDTH 556 0
DWIDTH 13 0
BBX 10 18 2 -5
BITMAP
C0C0
C0C0
C0C0
C0C0
C0C0
C0C0
C0C0
C0C0
C1C0
C1C0
E3C0
FFC0
FCC0
C000
C000
C000
C000
C000
ENDCHAR
STARTCHAR uni2215
ENCODING -1
SWIDTH 167 0
DWIDTH 4 0
BBX 12 17 -4 0
BITMAP
0030
0030
0060
00C0
00C0
0180
0300
0300
0600
0C00
0C00
1800
3000
3000
6000
C000
C000
ENDCHAR
ENDFONT
